<svg id="Capa_1" enable-background="new 0 0 609.62 609.62" height="512" viewBox="0 0 609.62 609.62" width="512" xmlns="http://www.w3.org/2000/svg"><g><g id="Page-1_66_"><g id="_x30_67---Measring-House-Plans" transform="translate(-1)"><path id="Shape_178_" d="m399.705 40.64h-45.518c-12.675.017-22.946 10.288-22.962 22.962v6.868l-70.95-64.437c-8.681-8.046-22.095-8.046-30.776 0l-205.615 186.667c-9.364 8.664-10.259 23.159-2.032 32.909l17.049 20.178c3.985 4.806 9.781 7.748 16.013 8.128 4.24.229 8.46-.72 12.192-2.743v160.015c.028 19.777 16.038 35.81 35.815 35.866h262.675l-6.807 30.481h-37.725c-5.611 0-10.16 4.549-10.16 10.16s4.549 10.16 10.16 10.16h33.184l-12.121 54.287c-2.698 12.219 2.346 24.846 12.721 31.843l-3.048 13.208c-.608 2.627-.147 5.389 1.283 7.676 1.429 2.287 3.709 3.912 6.338 4.517.751.161 1.518.239 2.286.234 4.729-.002 8.832-3.266 9.896-7.874l2.926-12.67c13.211-1.078 24.179-10.634 27.057-23.572l15.098-67.648h26.305v10.16c0 5.611 4.549 10.16 10.16 10.16s10.16-4.549 10.16-10.16v-10.16h26.305l15.088 67.678c2.892 12.924 13.857 22.464 27.057 23.542l2.926 12.67c1.065 4.612 5.173 7.877 9.906 7.874.772 0 1.542-.085 2.296-.254 2.628-.605 4.908-2.23 6.337-4.517s1.891-5.048 1.283-7.676l-3.048-13.208c10.369-7.015 15.406-19.648 12.711-31.873l-12.131-54.236h33.194c5.611 0 10.16-4.549 10.16-10.16s-4.549-10.16-10.16-10.16h-37.725l-31.263-140.03c8.915-17.102 10.475-37.098 4.321-55.375s-19.492-33.257-36.936-41.483v-57.762c-.083-16.8-13.681-30.398-30.481-30.481-8.162.012-15.977 3.307-21.682 9.144l-8.799-8.037v-89.908c-.017-12.675-10.288-22.946-22.963-22.963zm-48.16 22.963c.032-1.445 1.196-2.609 2.642-2.642h45.518c1.445.032 2.609 1.196 2.642 2.642v71.458l-50.802-46.138zm-101.603 363.13h-50.802v-111.764c0-5.611 4.549-10.16 10.16-10.16h71.122c5.611 0 10.16 4.549 10.16 10.16v111.764zm60.962 0v-111.764c0-16.834-13.647-30.481-30.481-30.481h-71.123c-16.834 0-30.481 13.647-30.481 30.481v111.764h-75.898c-8.578-.017-15.529-6.967-15.545-15.545v-177.45l157.486-142.997 159.924 145.181c.276.325.571.634.884.925l9.043 8.21c-30.935 19.774-41.639 59.906-24.659 92.459l-19.924 89.218h-59.226zm70.868 134.32c-1.02 4.647-5.149 7.95-9.906 7.925-.758-.021-1.512-.106-2.256-.254-2.634-.598-4.921-2.22-6.357-4.508s-1.901-5.053-1.294-7.685l44.299-198.411c5.425 4.806 11.551 8.757 18.167 11.715zm81.537-83.518v-10.16c0-5.611-4.549-10.16-10.16-10.16s-10.16 4.549-10.16 10.16v10.16h-21.774l22.79-102.254c6.065.871 12.224.871 18.289 0l22.79 102.254zm61.216 83.548-42.653-191.248c6.613-2.946 12.739-6.883 18.167-11.674l44.289 198.401c1.163 5.148-1.834 10.324-6.879 11.877-.203.051-.345.193-.549.254-2.652.664-5.46.231-7.789-1.202-2.328-1.431-3.982-3.741-4.586-6.408zm-20.575-256.274c0 28.057-22.745 50.802-50.802 50.802s-50.802-22.745-50.802-50.802 22.745-50.802 50.802-50.802c28.044.034 50.769 22.759 50.802 50.802zm-50.802-132.084c2.742-.005 5.364 1.124 7.244 3.119 1.888 1.854 2.94 4.396 2.916 7.041v51.615c-6.73-1.084-13.59-1.084-20.321 0v-51.615c.001-5.611 4.55-10.16 10.161-10.16zm-30.481 10.16v41.942l-2.428-2.215c-.283-.326-.585-.634-.904-.925l-167.646-152.191c-3.873-3.515-9.782-3.515-13.656 0l-167.929 152.476-.102.102-12.091 10.963c-.441.484-1.087.726-1.737.65-.703-.045-1.352-.394-1.778-.955l-17.049-20.199c-1.135-1.455-1.031-3.523.244-4.857l205.614-186.686c.938-.907 2.426-.907 3.363 0l176.282 160.087c-.04.64-.183 1.198-.183 1.808z"/><path id="Shape_177_" d="m422.667 304.809c0 16.834 13.647 30.481 30.481 30.481s30.481-13.647 30.481-30.481-13.647-30.481-30.481-30.481-30.481 13.647-30.481 30.481zm40.642 0c0 5.611-4.549 10.16-10.16 10.16s-10.16-4.549-10.16-10.16 4.549-10.16 10.16-10.16 10.16 4.549 10.16 10.16z"/></g></g></g></svg>