<svg width="359" height="512" viewBox="0 0 359 512" fill="none" xmlns="http://www.w3.org/2000/svg">
<path fill-rule="evenodd" clip-rule="evenodd" d="M187.754 290.133H170.687C165.975 290.133 162.154 293.953 162.154 298.666C162.154 303.378 165.975 307.199 170.687 307.199H187.754C192.467 307.199 196.287 303.378 196.287 298.666C196.287 293.953 192.467 290.133 187.754 290.133Z" fill="white"/>
<path fill-rule="evenodd" clip-rule="evenodd" d="M136.554 187.733C131.842 187.733 128.021 191.553 128.021 196.266V204.799C128.021 209.512 131.842 213.332 136.554 213.332C141.267 213.332 145.087 209.512 145.087 204.799V196.266C145.087 191.553 141.267 187.733 136.554 187.733Z" fill="white"/>
<path fill-rule="evenodd" clip-rule="evenodd" d="M221.887 213.333C226.6 213.333 230.42 209.512 230.42 204.8V196.267C230.42 191.554 226.6 187.734 221.887 187.734C217.175 187.734 213.354 191.554 213.354 196.267V204.8C213.354 209.513 217.175 213.333 221.887 213.333Z" fill="white"/>
<path fill-rule="evenodd" clip-rule="evenodd" d="M170.687 247.467H187.754C192.467 247.467 196.287 243.646 196.287 238.934C196.287 234.221 192.467 230.401 187.754 230.401H170.687C165.975 230.401 162.154 234.221 162.154 238.934C162.154 243.646 165.975 247.467 170.687 247.467Z" fill="white"/>
<path d="M290.154 372.284V366.933C290.154 357.507 282.513 349.866 273.087 349.866H256.02C253.014 349.885 250.068 350.707 247.487 352.247C242.225 340.158 239.454 327.133 239.338 313.949L267.054 289.689C276.312 281.586 281.622 269.881 281.621 257.578V246.613C298.526 243.216 311.705 229.946 314.985 213.018C318.264 196.091 310.994 178.858 296.581 169.395C303.009 166.783 307.215 160.538 307.222 153.599V136.532C307.202 130.355 303.834 124.674 298.424 121.693C295.952 71.0797 261.625 27.6157 212.963 13.4816C211.273 5.62207 204.327 0.00587907 196.287 0H162.154C154.114 0.00587907 147.168 5.62207 145.48 13.4824C96.8175 27.6165 62.4913 71.0805 60.0187 121.693C54.6091 124.675 51.2412 130.356 51.2211 136.533V153.6C51.2311 160.536 55.4372 166.776 61.8622 169.387C47.4425 178.849 40.1676 196.084 43.4481 213.016C46.7278 229.948 59.912 243.221 76.8219 246.614V257.587C76.8227 269.892 82.1357 281.597 91.397 289.698L119.113 313.958C118.993 327.14 116.219 340.162 110.956 352.247C108.375 350.707 105.429 349.885 102.423 349.866H85.3558C75.93 349.866 68.2889 357.507 68.2889 366.933V372.284C55.7832 377.772 44.4039 385.533 34.7269 395.17C13.385 417.468 1.92505 460.8 0.021911 493.892C-0.215771 498.624 1.48832 503.248 4.74113 506.693C7.94438 510.095 12.4158 512.017 17.0889 512.001H341.356C346.025 512.017 350.492 510.099 353.695 506.701C356.961 503.244 358.669 498.6 358.423 493.85C356.528 460.8 345.068 417.468 323.743 395.187C314.058 385.541 302.67 377.775 290.154 372.284ZM256.02 366.934H273.087V435.201H256.02V366.934ZM119.487 435.2V385.707C137.481 396.525 158.24 401.862 179.22 401.067C200.201 401.862 220.959 396.525 238.953 385.707V435.2H119.487ZM68.2872 153.6V136.533H290.154V153.6H68.2872ZM110.954 51.541V93.8661C110.954 98.5786 114.775 102.399 119.487 102.399C124.2 102.399 128.02 98.5786 128.02 93.8661V39.3134C133.455 36.1832 139.169 33.5636 145.087 31.4883V76.8C145.087 81.5125 148.908 85.3331 153.62 85.3331C158.333 85.3331 162.153 81.5125 162.153 76.8V17.0669H196.286V76.8C196.286 81.5125 200.107 85.3331 204.819 85.3331C209.532 85.3331 213.352 81.5125 213.352 76.8V31.4883C219.271 33.5636 224.984 36.1832 230.419 39.3134V93.867C230.419 98.5794 234.24 102.4 238.952 102.4C243.665 102.4 247.486 98.5794 247.486 93.867V51.541C267.062 68.9951 279.159 93.3227 281.261 119.466H77.1788C79.2802 93.3236 91.3768 68.996 110.954 51.541ZM93.8872 257.579V238.934C93.8872 234.221 90.0666 230.401 85.3541 230.401C72.8888 230.505 62.1822 221.564 60.064 209.279C57.9459 196.994 65.0394 184.983 76.8202 180.907V196.268C76.8202 200.98 80.6408 204.801 85.3533 204.801C90.0658 204.801 93.8863 200.98 93.8863 196.268V170.668H264.553V196.268C264.553 200.98 268.374 204.801 273.086 204.801C277.799 204.801 281.619 200.98 281.619 196.268V180.907C293.4 184.983 300.494 196.994 298.376 209.279C296.257 221.564 285.552 230.506 273.086 230.401C268.373 230.401 264.552 234.221 264.552 238.934V257.579C264.55 264.96 261.361 271.98 255.806 276.839L208.873 317.935C204.205 322.014 198.218 324.263 192.019 324.267H166.419C160.22 324.266 154.232 322.017 149.565 317.935L102.632 276.839C97.0787 271.979 93.8897 264.96 93.8872 257.579ZM138.355 330.786C146.126 337.581 156.098 341.329 166.421 341.333H192.021C202.355 341.332 212.338 337.585 220.121 330.786L223.38 327.927C224.522 341.67 228.924 354.942 236.223 366.642C229.012 373.06 211.962 383.999 179.22 383.999C146.478 383.999 129.386 373.034 122.234 366.651C129.538 354.946 133.943 341.667 135.085 327.918L138.355 330.786ZM85.3541 366.934H102.421V435.201H85.3541V366.934ZM17.0872 494.814C18.7342 465.869 28.8294 426.027 47.0906 406.921C53.3107 400.663 60.4605 395.404 68.2872 391.33V436.771C58.0954 440.374 51.2656 449.991 51.2202 460.801V494.934L17.0872 494.814ZM68.2872 494.934V460.801C68.2872 456.088 72.1077 452.268 76.8202 452.268H281.62C286.333 452.268 290.153 456.088 290.153 460.801V494.934H68.2872ZM307.22 494.934V460.801C307.176 449.991 300.345 440.374 290.153 436.771V391.33C297.992 395.415 305.151 400.688 311.376 406.964C329.62 426.027 339.715 465.869 341.353 494.934H307.22Z" fill="white"/>
<path fill-rule="evenodd" clip-rule="evenodd" d="M158.621 278.187C165.178 280.752 172.182 281.979 179.22 281.796C186.254 281.98 193.254 280.759 199.811 278.204C202.59 276.945 204.486 274.299 204.785 271.263C205.084 268.227 203.74 265.262 201.261 263.485C198.781 261.708 195.541 261.388 192.763 262.647C183.95 265.416 174.5 265.416 165.687 262.647C161.396 260.696 156.336 262.593 154.385 266.885C152.434 271.175 154.33 276.236 158.621 278.187Z" fill="white"/>
</svg>
