<svg height="512" viewBox="0 0 60 60" width="512" xmlns="http://www.w3.org/2000/svg"><g id="Page-1" fill="none" fill-rule="evenodd"><g id="053---Construction-Jobs" fill="rgb(0,0,0)"><path id="Path" d="m10 40h-2v-2c0-.5522847-.44771525-1-1-1s-1 .4477153-1 1v3c0 .5522847.44771525 1 1 1h3c.5522847 0 1-.4477153 1-1s-.4477153-1-1-1z"/><path id="Path" d="m47 56c.5522847 0 1-.4477153 1-1v-3c0-.5522847-.4477153-1-1-1s-1 .4477153-1 1v3c0 .5522847.4477153 1 1 1z"/><path id="Shape" d="m57.67 19h-1.9c-.6706872.017342-1.3114841.2811367-1.8.741-.6024168.3314583-1.3325832.3314583-1.935 0-.4905812-.4635106-1.1362151-.7276822-1.811-.741h-2.487c.1532525-.3528643.2358107-.7323601.243-1.117l.02-6.883c0-1.65685425-1.3431458-3-3-3h-8v-4c0-2.209139-1.790861-4-4-4h-18c-2.209139 0-4 1.790861-4 4v4h-8c-1.65685425 0-3 1.34314575-3 3l.02 6.88c.0116111 1.2661511.79718074 2.3961018 1.98 2.848v22.272c0 1.6568542 1.34314575 3 3 3h37v9c0 2.7614237 2.2385763 5 5 5s5-2.2385763 5-5v-26c0-.5522847.4477153-1 1-1 .3431505-.0274152.6852889.0640336.969.259.4885159.4598633 1.1293128.723658 1.8.741h1.9c1.2867569-.0005513 2.3298966-1.0432434 2.331-2.33v-5.34c-.0011028-1.2863664-1.0436336-2.3288972-2.33-2.33zm-44.67-15c0-1.1045695.8954305-2 2-2h18c1.1045695 0 2 .8954305 2 2v4h-2v-3c0-.55228475-.4477153-1-1-1h-16c-.5522847 0-1 .44771525-1 1v3h-2zm18 2v2h-14v-2zm-27.627 13.175c-.685-.329-1.353-.552-1.353-1.3l-.02-6.875c0-.5522847.44771525-1 1-1h42c.5522847 0 1 .4477153 1 1l-.02 6.863c-.107.721-.312.791-1 1.14h-.11c-3.508 0-6.167.51-9.128 2.938-2.226664.4339669-4.4784577.7272144-6.742.878v-.819c0-1.1045695-.8954305-2-2-2h-6c-1.1045695 0-2 .8954305-2 2v.819c-8.092-.58-13.175-2.472-15.585-3.623-.015-.007-.027-.015-.042-.021zm17.627 6.825v-4h6v4zm5 2v2c0 .5522847-.4477153 1-1 1h-2c-.5522847 0-1-.4477153-1-1v-2zm16 5v11h-37c-.55228475 0-1-.4477153-1-1v-21.364c4.80042386 1.847312 9.863146 2.9226341 15 3.186v1.178c.002145.7113268.3832487 1.3675874 1 1.722v2.278c0 1.6568542 1.3431458 3 3 3h2c1.6568542 0 3-1.3431458 3-3v-2.278c.6167513-.3544126.997855-1.0106732 1-1.722v-1.177c1.554-.1 3.072-.265 4.572-.487-1.1523729 2.0245585-1.6980687 4.3378643-1.572 6.664.0000586.3863067.2226188.7380293.5716996.9034846s.7622404.1150475 1.0613004-.1294846c2.4304582-1.7765538 5.3565972-2.7466876 8.367-2.774zm8 22c-.0000001 1.6568542-1.3431458 2.9999999-3 2.9999999s-2.9999999-1.3431457-3-2.9999999v-21h6zm8-28.33c-.0021592.1813521-.1486479.3278408-.33.33h-1.9c-.1815546-.0254092-.3496116-.1101408-.478-.241-.6845838-.5296899-1.5353645-.7983948-2.4-.758-1.616206.0535162-2.897211 1.3819166-2.892 2.999v3h-6v-4c0-.5522847-.4477153-1-1-1h-1c-2.7723679.0205272-5.494359.7429971-7.912 2.1.0848173-2.0565887 1.0142569-3.9871024 2.569-5.336 2.681-2.336 4.869-2.764 8.213-2.764h5.354c.1868045.0263299.359724.1134926.492.248 1.3605297 1.0053558 3.2185525 1.0025135 4.576-.007.1283884-.1308592.2964454-.2155908.478-.241h1.9c.1813521.0021592.3278408.1486479.33.33z" fill-rule="nonzero"/></g></g></svg>