<svg width="1811" height="506" viewBox="0 0 1811 506" fill="none" xmlns="http://www.w3.org/2000/svg">
<path d="M581.799 325V76.1719H671.179C703.194 76.1719 727.518 82.0394 744.152 93.7744C760.9 105.509 769.274 122.542 769.274 144.873C769.274 157.747 766.312 168.742 760.388 177.856C754.463 186.971 745.747 193.693 734.24 198.022C747.229 201.44 757.198 207.821 764.147 217.163C771.097 226.506 774.572 237.899 774.572 251.343C774.572 275.724 766.825 294.067 751.33 306.372C735.949 318.563 713.106 324.772 682.8 325H581.799ZM641.784 219.214V278.857H681.091C691.914 278.857 700.231 276.408 706.042 271.509C711.853 266.496 714.758 259.489 714.758 250.488C714.758 229.753 704.447 219.328 683.825 219.214H641.784ZM641.784 179.907H673.059C686.161 179.793 695.503 177.401 701.086 172.729C706.669 168.058 709.46 161.165 709.46 152.051C709.46 141.569 706.441 134.049 700.402 129.492C694.364 124.821 684.623 122.485 671.179 122.485H641.784V179.907ZM956.49 325C954.439 321.24 952.617 315.715 951.021 308.423C940.426 321.753 925.615 328.418 906.588 328.418C889.156 328.418 874.345 323.177 862.154 312.695C849.964 302.1 843.868 288.826 843.868 272.876C843.868 252.824 851.274 237.671 866.085 227.417C880.896 217.163 902.429 212.036 930.685 212.036H948.458V202.295C948.458 185.319 941.109 176.831 926.412 176.831C912.74 176.831 905.904 183.553 905.904 196.997H848.312C848.312 179.11 855.888 164.583 871.041 153.418C886.308 142.253 905.733 136.67 929.317 136.67C952.901 136.67 971.529 142.424 985.201 153.931C998.873 165.438 1005.88 181.217 1006.22 201.27V283.13C1006.45 300.106 1009.07 313.094 1014.08 322.095V325H956.49ZM920.431 287.402C927.608 287.402 933.533 285.864 938.204 282.788C942.989 279.712 946.407 276.237 948.458 272.363V242.798H931.71C911.658 242.798 901.632 251.799 901.632 269.8C901.632 275.041 903.398 279.313 906.93 282.617C910.462 285.807 914.962 287.402 920.431 287.402ZM1182.33 273.047C1182.33 268.148 1179.77 264.217 1174.64 261.255C1169.51 258.293 1159.77 255.216 1145.42 252.026C1131.06 248.836 1119.21 244.678 1109.87 239.551C1100.53 234.31 1093.4 227.987 1088.51 220.581C1083.61 213.175 1081.16 204.688 1081.16 195.117C1081.16 178.141 1088.16 164.185 1102.18 153.247C1116.19 142.196 1134.53 136.67 1157.21 136.67C1181.59 136.67 1201.18 142.196 1216 153.247C1230.81 164.299 1238.21 178.825 1238.21 196.826H1180.45C1180.45 182.015 1172.64 174.609 1157.04 174.609C1151 174.609 1145.93 176.318 1141.83 179.736C1137.72 183.04 1135.67 187.199 1135.67 192.212C1135.67 197.339 1138.18 201.497 1143.19 204.688C1148.21 207.878 1156.18 210.498 1167.12 212.549C1178.17 214.6 1187.85 217.049 1196.17 219.897C1223.97 229.468 1237.87 246.615 1237.87 271.338C1237.87 288.2 1230.35 301.929 1215.31 312.524C1200.39 323.12 1181.02 328.418 1157.21 328.418C1141.37 328.418 1127.24 325.57 1114.82 319.873C1102.41 314.176 1092.72 306.429 1085.77 296.631C1078.82 286.833 1075.35 276.522 1075.35 265.698H1129.18C1129.41 274.243 1132.26 280.509 1137.72 284.497C1143.19 288.371 1150.2 290.308 1158.75 290.308C1166.61 290.308 1172.47 288.713 1176.35 285.522C1180.34 282.332 1182.33 278.174 1182.33 273.047ZM1416.37 325C1414.32 321.24 1412.5 315.715 1410.9 308.423C1400.31 321.753 1385.5 328.418 1366.47 328.418C1349.04 328.418 1334.23 323.177 1322.04 312.695C1309.84 302.1 1303.75 288.826 1303.75 272.876C1303.75 252.824 1311.15 237.671 1325.97 227.417C1340.78 217.163 1362.31 212.036 1390.57 212.036H1408.34V202.295C1408.34 185.319 1400.99 176.831 1386.29 176.831C1372.62 176.831 1365.79 183.553 1365.79 196.997H1308.19C1308.19 179.11 1315.77 164.583 1330.92 153.418C1346.19 142.253 1365.61 136.67 1389.2 136.67C1412.78 136.67 1431.41 142.424 1445.08 153.931C1458.75 165.438 1465.76 181.217 1466.1 201.27V283.13C1466.33 300.106 1468.95 313.094 1473.96 322.095V325H1416.37ZM1380.31 287.402C1387.49 287.402 1393.41 285.864 1398.08 282.788C1402.87 279.712 1406.29 276.237 1408.34 272.363V242.798H1391.59C1371.54 242.798 1361.51 251.799 1361.51 269.8C1361.51 275.041 1363.28 279.313 1366.81 282.617C1370.34 285.807 1374.84 287.402 1380.31 287.402ZM1606.15 325H1548.39V62.5H1606.15V325ZM1756.11 94.1162V140.088H1786.53V180.078H1756.11V264.673C1756.11 271.623 1757.36 276.465 1759.87 279.199C1762.38 281.934 1767.33 283.301 1774.74 283.301C1780.43 283.301 1785.22 282.959 1789.09 282.275V323.462C1778.73 326.766 1767.9 328.418 1756.62 328.418C1736.8 328.418 1722.16 323.747 1712.7 314.404C1703.25 305.062 1698.52 290.877 1698.52 271.851V180.078H1674.93V140.088H1698.52V94.1162H1756.11Z" fill="white"/>
<path d="M593.176 485.977C585.07 485.977 578.511 483.568 573.498 478.75C568.485 473.9 565.979 467.601 565.979 459.854V458.486C565.979 453.083 566.971 448.314 568.957 444.18C570.975 440.046 573.905 436.855 577.746 434.609C581.587 432.331 586.145 431.191 591.418 431.191C598.84 431.191 604.699 433.503 608.996 438.125C613.293 442.715 615.441 449.128 615.441 457.363V463.76H582.727C583.312 466.722 584.598 469.049 586.584 470.742C588.57 472.435 591.141 473.281 594.299 473.281C599.507 473.281 603.576 471.458 606.506 467.812L614.025 476.699C611.975 479.531 609.061 481.794 605.285 483.486C601.542 485.146 597.505 485.977 593.176 485.977ZM591.32 443.887C586.503 443.887 583.638 447.077 582.727 453.457H599.328V452.188C599.393 449.551 598.726 447.516 597.326 446.084C595.926 444.619 593.924 443.887 591.32 443.887ZM637.219 432.168L637.756 438.369C641.402 433.584 646.431 431.191 652.844 431.191C658.345 431.191 662.447 432.835 665.148 436.123C667.883 439.411 669.299 444.359 669.396 450.967V485H652.893V451.65C652.893 448.981 652.355 447.028 651.281 445.791C650.207 444.521 648.254 443.887 645.422 443.887C642.199 443.887 639.807 445.156 638.244 447.695V485H621.789V432.168H637.219ZM676.623 458.193C676.623 452.855 677.502 448.135 679.26 444.033C681.018 439.932 683.54 436.774 686.828 434.561C690.116 432.314 693.941 431.191 698.303 431.191C703.804 431.191 708.101 433.047 711.193 436.758L711.779 432.168H726.721V482.998C726.721 487.653 725.63 491.689 723.449 495.107C721.301 498.558 718.176 501.195 714.074 503.018C709.973 504.873 705.22 505.801 699.816 505.801C695.943 505.801 692.183 505.068 688.537 503.604C684.924 502.139 682.157 500.234 680.236 497.891L687.121 488.223C690.181 491.836 694.217 493.643 699.23 493.643C706.522 493.643 710.168 489.899 710.168 482.412V480.752C707.01 484.235 703.023 485.977 698.205 485.977C691.76 485.977 686.551 483.519 682.58 478.604C678.609 473.656 676.623 467.048 676.623 458.779V458.193ZM693.127 459.219C693.127 463.548 693.941 466.982 695.568 469.521C697.196 472.028 699.475 473.281 702.404 473.281C705.952 473.281 708.54 472.093 710.168 469.717V447.5C708.573 445.091 706.018 443.887 702.502 443.887C699.572 443.887 697.277 445.205 695.617 447.842C693.957 450.446 693.127 454.238 693.127 459.219ZM753.43 485H736.926V432.168H753.43V485ZM735.949 418.545C735.949 416.201 736.796 414.281 738.488 412.783C740.181 411.286 742.378 410.537 745.08 410.537C747.782 410.537 749.979 411.286 751.672 412.783C753.365 414.281 754.211 416.201 754.211 418.545C754.211 420.889 753.365 422.809 751.672 424.307C749.979 425.804 747.782 426.553 745.08 426.553C742.378 426.553 740.181 425.804 738.488 424.307C736.796 422.809 735.949 420.889 735.949 418.545ZM778.723 432.168L779.26 438.369C782.906 433.584 787.935 431.191 794.348 431.191C799.849 431.191 803.951 432.835 806.652 436.123C809.387 439.411 810.803 444.359 810.9 450.967V485H794.396V451.65C794.396 448.981 793.859 447.028 792.785 445.791C791.711 444.521 789.758 443.887 786.926 443.887C783.703 443.887 781.311 445.156 779.748 447.695V485H763.293V432.168H778.723ZM845.617 485.977C837.512 485.977 830.952 483.568 825.939 478.75C820.926 473.9 818.42 467.601 818.42 459.854V458.486C818.42 453.083 819.413 448.314 821.398 444.18C823.417 440.046 826.346 436.855 830.188 434.609C834.029 432.331 838.586 431.191 843.859 431.191C851.281 431.191 857.141 433.503 861.438 438.125C865.734 442.715 867.883 449.128 867.883 457.363V463.76H835.168C835.754 466.722 837.04 469.049 839.025 470.742C841.011 472.435 843.583 473.281 846.74 473.281C851.949 473.281 856.018 471.458 858.947 467.812L866.467 476.699C864.416 479.531 861.503 481.794 857.727 483.486C853.983 485.146 849.947 485.977 845.617 485.977ZM843.762 443.887C838.944 443.887 836.079 447.077 835.168 453.457H851.77V452.188C851.835 449.551 851.167 447.516 849.768 446.084C848.368 444.619 846.366 443.887 843.762 443.887ZM900.109 485.977C892.004 485.977 885.445 483.568 880.432 478.75C875.419 473.9 872.912 467.601 872.912 459.854V458.486C872.912 453.083 873.905 448.314 875.891 444.18C877.909 440.046 880.839 436.855 884.68 434.609C888.521 432.331 893.078 431.191 898.352 431.191C905.773 431.191 911.633 433.503 915.93 438.125C920.227 442.715 922.375 449.128 922.375 457.363V463.76H889.66C890.246 466.722 891.532 469.049 893.518 470.742C895.503 472.435 898.075 473.281 901.232 473.281C906.441 473.281 910.51 471.458 913.439 467.812L920.959 476.699C918.908 479.531 915.995 481.794 912.219 483.486C908.475 485.146 904.439 485.977 900.109 485.977ZM898.254 443.887C893.436 443.887 890.572 447.077 889.66 453.457H906.262V452.188C906.327 449.551 905.66 447.516 904.26 446.084C902.86 444.619 900.858 443.887 898.254 443.887ZM960.998 447.061L955.578 446.67C950.402 446.67 947.082 448.298 945.617 451.553V485H929.162V432.168H944.592L945.129 438.955C947.896 433.779 951.753 431.191 956.701 431.191C958.459 431.191 959.989 431.387 961.291 431.777L960.998 447.061ZM984.289 485H967.785V432.168H984.289V485ZM966.809 418.545C966.809 416.201 967.655 414.281 969.348 412.783C971.04 411.286 973.238 410.537 975.939 410.537C978.641 410.537 980.839 411.286 982.531 412.783C984.224 414.281 985.07 416.201 985.07 418.545C985.07 420.889 984.224 422.809 982.531 424.307C980.839 425.804 978.641 426.553 975.939 426.553C973.238 426.553 971.04 425.804 969.348 424.307C967.655 422.809 966.809 420.889 966.809 418.545ZM1009.58 432.168L1010.12 438.369C1013.76 433.584 1018.79 431.191 1025.21 431.191C1030.71 431.191 1034.81 432.835 1037.51 436.123C1040.25 439.411 1041.66 444.359 1041.76 450.967V485H1025.26V451.65C1025.26 448.981 1024.72 447.028 1023.64 445.791C1022.57 444.521 1020.62 443.887 1017.79 443.887C1014.56 443.887 1012.17 445.156 1010.61 447.695V485H994.152V432.168H1009.58ZM1048.99 458.193C1048.99 452.855 1049.87 448.135 1051.62 444.033C1053.38 439.932 1055.9 436.774 1059.19 434.561C1062.48 432.314 1066.3 431.191 1070.67 431.191C1076.17 431.191 1080.46 433.047 1083.56 436.758L1084.14 432.168H1099.08V482.998C1099.08 487.653 1097.99 491.689 1095.81 495.107C1093.66 498.558 1090.54 501.195 1086.44 503.018C1082.34 504.873 1077.58 505.801 1072.18 505.801C1068.31 505.801 1064.55 505.068 1060.9 503.604C1057.29 502.139 1054.52 500.234 1052.6 497.891L1059.48 488.223C1062.54 491.836 1066.58 493.643 1071.59 493.643C1078.89 493.643 1082.53 489.899 1082.53 482.412V480.752C1079.37 484.235 1075.39 485.977 1070.57 485.977C1064.12 485.977 1058.91 483.519 1054.94 478.604C1050.97 473.656 1048.99 467.048 1048.99 458.779V458.193ZM1065.49 459.219C1065.49 463.548 1066.3 466.982 1067.93 469.521C1069.56 472.028 1071.84 473.281 1074.77 473.281C1078.32 473.281 1080.9 472.093 1082.53 469.717V447.5C1080.94 445.091 1078.38 443.887 1074.87 443.887C1071.94 443.887 1069.64 445.205 1067.98 447.842C1066.32 450.446 1065.49 454.238 1065.49 459.219ZM1143.91 447.549C1141.99 444.814 1140.47 442.21 1139.37 439.736C1138.29 437.262 1137.76 434.707 1137.76 432.07C1137.76 426.341 1139.61 421.719 1143.32 418.203C1147.03 414.655 1151.88 412.881 1157.87 412.881C1163.24 412.881 1167.69 414.525 1171.2 417.812C1174.72 421.068 1176.48 425.12 1176.48 429.971C1176.48 436.025 1173.14 441.396 1166.47 446.084L1162.76 448.672L1173.69 461.221C1175.48 457.64 1176.38 453.717 1176.38 449.453H1190.2C1190.2 459.056 1187.98 466.755 1183.56 472.549L1194.4 485H1176.04L1172.72 481.24C1169.98 482.868 1167.18 484.072 1164.32 484.854C1161.49 485.635 1158.28 486.025 1154.7 486.025C1147.67 486.025 1142.04 484.186 1137.8 480.508C1133.57 476.797 1131.46 471.93 1131.46 465.908C1131.46 462.62 1132.29 459.642 1133.95 456.973C1135.64 454.303 1138.91 451.195 1143.76 447.646L1143.91 447.549ZM1155.77 473.33C1158.64 473.33 1161.37 472.663 1163.98 471.328L1151.18 456.777L1150.74 457.07C1148.89 459.349 1147.96 461.921 1147.96 464.785C1147.96 467.161 1148.71 469.18 1150.21 470.84C1151.7 472.5 1153.56 473.33 1155.77 473.33ZM1151.96 431.875C1151.96 434.154 1153.2 436.921 1155.68 440.176L1158.95 438.125C1160.44 437.148 1161.54 436.139 1162.22 435.098C1162.9 434.056 1163.24 432.738 1163.24 431.143C1163.24 429.645 1162.72 428.343 1161.68 427.236C1160.64 426.13 1159.35 425.576 1157.82 425.576C1156 425.576 1154.57 426.162 1153.53 427.334C1152.49 428.473 1151.96 429.987 1151.96 431.875ZM1247.96 473.281C1250.27 473.281 1252.06 472.663 1253.33 471.426C1254.6 470.156 1255.22 468.398 1255.19 466.152H1270.62C1270.62 471.947 1268.53 476.699 1264.37 480.41C1260.23 484.121 1254.89 485.977 1248.35 485.977C1240.67 485.977 1234.61 483.568 1230.19 478.75C1225.76 473.932 1223.55 467.259 1223.55 458.73V458.047C1223.55 452.708 1224.52 448.005 1226.48 443.936C1228.46 439.834 1231.31 436.693 1235.02 434.512C1238.73 432.298 1243.13 431.191 1248.21 431.191C1255.07 431.191 1260.53 433.096 1264.56 436.904C1268.6 440.713 1270.62 445.872 1270.62 452.383H1255.19C1255.19 449.648 1254.52 447.549 1253.19 446.084C1251.85 444.619 1250.06 443.887 1247.81 443.887C1243.55 443.887 1241.06 446.605 1240.34 452.041C1240.12 453.766 1240 456.143 1240 459.17C1240 464.476 1240.64 468.154 1241.91 470.205C1243.18 472.256 1245.19 473.281 1247.96 473.281ZM1275.5 458.096C1275.5 452.822 1276.53 448.135 1278.58 444.033C1280.63 439.899 1283.57 436.725 1287.41 434.512C1291.26 432.298 1295.76 431.191 1300.94 431.191C1308.85 431.191 1315.08 433.649 1319.64 438.564C1324.2 443.447 1326.48 450.104 1326.48 458.535V459.121C1326.48 467.357 1324.18 473.9 1319.59 478.75C1315.03 483.568 1308.85 485.977 1301.04 485.977C1293.52 485.977 1287.48 483.73 1282.92 479.238C1278.36 474.714 1275.91 468.594 1275.55 460.879L1275.5 458.096ZM1291.96 459.121C1291.96 464.004 1292.72 467.585 1294.25 469.863C1295.78 472.142 1298.04 473.281 1301.04 473.281C1306.9 473.281 1309.89 468.773 1310.02 459.756V458.096C1310.02 448.623 1306.99 443.887 1300.94 443.887C1295.44 443.887 1292.46 447.972 1292 456.143L1291.96 459.121ZM1348.84 432.168L1349.38 438.369C1353.02 433.584 1358.05 431.191 1364.46 431.191C1369.97 431.191 1374.07 432.835 1376.77 436.123C1379.5 439.411 1380.92 444.359 1381.02 450.967V485H1364.51V451.65C1364.51 448.981 1363.98 447.028 1362.9 445.791C1361.83 444.521 1359.88 443.887 1357.04 443.887C1353.82 443.887 1351.43 445.156 1349.87 447.695V485H1333.41V432.168H1348.84ZM1417.83 470.156C1417.83 468.757 1417.1 467.633 1415.64 466.787C1414.17 465.941 1411.39 465.062 1407.29 464.15C1403.19 463.239 1399.8 462.051 1397.13 460.586C1394.46 459.089 1392.43 457.282 1391.03 455.166C1389.63 453.05 1388.93 450.625 1388.93 447.891C1388.93 443.04 1390.93 439.053 1394.93 435.928C1398.94 432.77 1404.18 431.191 1410.66 431.191C1417.62 431.191 1423.22 432.77 1427.45 435.928C1431.68 439.085 1433.8 443.236 1433.8 448.379H1417.3C1417.3 444.147 1415.07 442.031 1410.61 442.031C1408.88 442.031 1407.43 442.52 1406.26 443.496C1405.09 444.44 1404.5 445.628 1404.5 447.061C1404.5 448.525 1405.22 449.714 1406.65 450.625C1408.08 451.536 1410.36 452.285 1413.49 452.871C1416.65 453.457 1419.41 454.157 1421.79 454.971C1429.73 457.705 1433.7 462.604 1433.7 469.668C1433.7 474.486 1431.55 478.408 1427.26 481.436C1422.99 484.463 1417.46 485.977 1410.66 485.977C1406.13 485.977 1402.1 485.163 1398.55 483.535C1395 481.908 1392.23 479.694 1390.25 476.895C1388.26 474.095 1387.27 471.149 1387.27 468.057H1402.65C1402.71 470.498 1403.53 472.288 1405.09 473.428C1406.65 474.535 1408.65 475.088 1411.1 475.088C1413.34 475.088 1415.02 474.632 1416.12 473.721C1417.26 472.809 1417.83 471.621 1417.83 470.156ZM1460.61 419.033V432.168H1469.3V443.594H1460.61V467.764C1460.61 469.749 1460.97 471.133 1461.68 471.914C1462.4 472.695 1463.81 473.086 1465.93 473.086C1467.56 473.086 1468.92 472.988 1470.03 472.793V484.561C1467.07 485.505 1463.98 485.977 1460.75 485.977C1455.09 485.977 1450.91 484.642 1448.21 481.973C1445.5 479.303 1444.15 475.251 1444.15 469.814V443.594H1437.41V432.168H1444.15V419.033H1460.61ZM1507.78 447.061L1502.36 446.67C1497.18 446.67 1493.86 448.298 1492.39 451.553V485H1475.94V432.168H1491.37L1491.91 438.955C1494.67 433.779 1498.53 431.191 1503.48 431.191C1505.24 431.191 1506.77 431.387 1508.07 431.777L1507.78 447.061ZM1545.18 479.287C1541.69 483.747 1536.99 485.977 1531.07 485.977C1525.27 485.977 1520.88 484.3 1517.88 480.947C1514.92 477.562 1513.44 472.712 1513.44 466.396V432.168H1529.89V466.494C1529.89 471.019 1532.09 473.281 1536.49 473.281C1540.26 473.281 1542.95 471.93 1544.54 469.229V432.168H1561.1V485H1545.67L1545.18 479.287ZM1592.49 473.281C1594.8 473.281 1596.59 472.663 1597.86 471.426C1599.13 470.156 1599.75 468.398 1599.72 466.152H1615.15C1615.15 471.947 1613.07 476.699 1608.9 480.41C1604.76 484.121 1599.43 485.977 1592.88 485.977C1585.2 485.977 1579.15 483.568 1574.72 478.75C1570.29 473.932 1568.08 467.259 1568.08 458.73V458.047C1568.08 452.708 1569.05 448.005 1571.01 443.936C1572.99 439.834 1575.84 436.693 1579.55 434.512C1583.26 432.298 1587.66 431.191 1592.74 431.191C1599.6 431.191 1605.06 433.096 1609.09 436.904C1613.13 440.713 1615.15 445.872 1615.15 452.383H1599.72C1599.72 449.648 1599.05 447.549 1597.72 446.084C1596.38 444.619 1594.59 443.887 1592.35 443.887C1588.08 443.887 1585.59 446.605 1584.88 452.041C1584.65 453.766 1584.53 456.143 1584.53 459.17C1584.53 464.476 1585.17 468.154 1586.44 470.205C1587.71 472.256 1589.73 473.281 1592.49 473.281ZM1641.27 419.033V432.168H1649.96V443.594H1641.27V467.764C1641.27 469.749 1641.63 471.133 1642.35 471.914C1643.06 472.695 1644.48 473.086 1646.59 473.086C1648.22 473.086 1649.59 472.988 1650.7 472.793V484.561C1647.73 485.505 1644.64 485.977 1641.42 485.977C1635.75 485.977 1631.57 484.642 1628.87 481.973C1626.17 479.303 1624.82 475.251 1624.82 469.814V443.594H1618.08V432.168H1624.82V419.033H1641.27ZM1673.84 485H1657.34V432.168H1673.84V485ZM1656.36 418.545C1656.36 416.201 1657.21 414.281 1658.9 412.783C1660.59 411.286 1662.79 410.537 1665.49 410.537C1668.19 410.537 1670.39 411.286 1672.08 412.783C1673.77 414.281 1674.62 416.201 1674.62 418.545C1674.62 420.889 1673.77 422.809 1672.08 424.307C1670.39 425.804 1668.19 426.553 1665.49 426.553C1662.79 426.553 1660.59 425.804 1658.9 424.307C1657.21 422.809 1656.36 420.889 1656.36 418.545ZM1681.95 458.096C1681.95 452.822 1682.97 448.135 1685.02 444.033C1687.07 439.899 1690.02 436.725 1693.86 434.512C1697.7 432.298 1702.21 431.191 1707.38 431.191C1715.29 431.191 1721.53 433.649 1726.09 438.564C1730.64 443.447 1732.92 450.104 1732.92 458.535V459.121C1732.92 467.357 1730.63 473.9 1726.04 478.75C1721.48 483.568 1715.29 485.977 1707.48 485.977C1699.96 485.977 1693.92 483.73 1689.37 479.238C1684.81 474.714 1682.35 468.594 1681.99 460.879L1681.95 458.096ZM1698.4 459.121C1698.4 464.004 1699.17 467.585 1700.7 469.863C1702.23 472.142 1704.49 473.281 1707.48 473.281C1713.34 473.281 1716.34 468.773 1716.47 459.756V458.096C1716.47 448.623 1713.44 443.887 1707.38 443.887C1701.88 443.887 1698.9 447.972 1698.45 456.143L1698.4 459.121ZM1755.29 432.168L1755.82 438.369C1759.47 433.584 1764.5 431.191 1770.91 431.191C1776.41 431.191 1780.51 432.835 1783.21 436.123C1785.95 439.411 1787.37 444.359 1787.46 450.967V485H1770.96V451.65C1770.96 448.981 1770.42 447.028 1769.35 445.791C1768.27 444.521 1766.32 443.887 1763.49 443.887C1760.27 443.887 1757.87 445.156 1756.31 447.695V485H1739.86V432.168H1755.29Z" fill="white" fill-opacity="0.8"/>
<path d="M437 132.581V48H185.951L150.709 118.484H211.452V259.452H155.065V160.774H140.968V132.581H98.6774V104.387H84.5806V132.581H70.4839V90.2903H56.3871V132.581H14.0968V160.774H0V485H437V344.032H422.903V132.581H437ZM338.323 62.0968H422.903V118.484H338.323V62.0968ZM408.806 327.017L355.337 273.548L408.806 220.079V327.017ZM422.903 386.323H366.516V358.129H422.903V386.323ZM352.419 290.563L405.888 344.032H352.419V290.563ZM352.419 358.129V386.323H296.032V358.129H352.419ZM260.79 428.613V400.419H317.177V428.613H260.79ZM281.935 386.323H225.548V358.129H281.935V386.323ZM211.452 386.323H155.065V358.129H211.452V386.323ZM155.065 400.419H176.21V428.613H155.065V400.419ZM190.306 400.419H246.694V428.613H190.306V400.419ZM281.935 442.71V470.903H225.548V442.71H281.935ZM296.032 442.71H352.419V470.903H296.032V442.71ZM331.274 428.613V400.419H387.661V428.613H331.274ZM401.758 400.419H422.903V428.613H401.758V400.419ZM352.419 256.534V149.595L405.888 203.065L352.419 256.534ZM246.694 70.8086L263.483 104.387H229.904L246.694 70.8086ZM218.5 95.6753L201.711 62.0968H235.289L218.5 95.6753ZM258.098 62.0968H291.676L274.887 95.6753L258.098 62.0968ZM307.437 62.0968H324.226V104.387H286.291L307.437 62.0968ZM190.306 70.8086L207.096 104.387H173.517L190.306 70.8086ZM225.548 118.484H324.226V132.581H338.323V344.032H155.065V315.839H296.032V259.452H225.548V118.484ZM281.935 273.548V301.742H155.065V273.548H281.935ZM28.1935 146.677H126.871V160.774H28.1935V146.677ZM140.968 174.871V188.968H14.0968V174.871H140.968ZM14.0968 470.903V203.065H140.968V470.903H14.0968ZM155.065 442.71H211.452V470.903H155.065V442.71ZM366.516 470.903V442.71H422.903V470.903H366.516ZM408.806 186.05L355.337 132.581H408.806V186.05Z" fill="#FF5E14"/>
<path d="M352.419 76.1934H366.516V104.387H352.419V76.1934Z" fill="#FF5E14"/>
<path d="M394.71 76.1934H408.806V104.387H394.71V76.1934Z" fill="#FF5E14"/>
<path d="M112.774 217.161H126.871V231.258H112.774V217.161Z" fill="#FF5E14"/>
<path d="M84.5807 217.161H98.6775V231.258H84.5807V217.161Z" fill="#FF5E14"/>
<path d="M56.3871 217.161H70.4839V231.258H56.3871V217.161Z" fill="#FF5E14"/>
<path d="M28.1936 217.161H42.2904V231.258H28.1936V217.161Z" fill="#FF5E14"/>
<path d="M28.1936 245.355H42.2904V259.452H28.1936V245.355Z" fill="#FF5E14"/>
<path d="M84.5807 245.355H98.6775V259.452H84.5807V245.355Z" fill="#FF5E14"/>
<path d="M112.774 245.355H126.871V259.452H112.774V245.355Z" fill="#FF5E14"/>
<path d="M56.3871 245.355H70.4839V259.452H56.3871V245.355Z" fill="#FF5E14"/>
<path d="M112.774 273.548H126.871V287.645H112.774V273.548Z" fill="#FF5E14"/>
<path d="M28.1936 273.548H42.2904V287.645H28.1936V273.548Z" fill="#FF5E14"/>
<path d="M56.3871 273.548H70.4839V287.645H56.3871V273.548Z" fill="#FF5E14"/>
<path d="M84.5807 273.548H98.6775V287.645H84.5807V273.548Z" fill="#FF5E14"/>
<path d="M56.3871 301.742H70.4839V315.838H56.3871V301.742Z" fill="#FF5E14"/>
<path d="M112.774 301.742H126.871V315.838H112.774V301.742Z" fill="#FF5E14"/>
<path d="M84.5807 301.742H98.6775V315.838H84.5807V301.742Z" fill="#FF5E14"/>
<path d="M28.1936 301.742H42.2904V315.838H28.1936V301.742Z" fill="#FF5E14"/>
<path d="M84.5807 329.936H98.6775V344.032H84.5807V329.936Z" fill="#FF5E14"/>
<path d="M56.3871 329.936H70.4839V344.032H56.3871V329.936Z" fill="#FF5E14"/>
<path d="M28.1936 329.936H42.2904V344.032H28.1936V329.936Z" fill="#FF5E14"/>
<path d="M112.774 329.936H126.871V344.032H112.774V329.936Z" fill="#FF5E14"/>
<path d="M84.5807 358.129H98.6775V372.226H84.5807V358.129Z" fill="#FF5E14"/>
<path d="M56.3871 358.129H70.4839V372.226H56.3871V358.129Z" fill="#FF5E14"/>
<path d="M28.1936 358.129H42.2904V372.226H28.1936V358.129Z" fill="#FF5E14"/>
<path d="M112.774 358.129H126.871V372.226H112.774V358.129Z" fill="#FF5E14"/>
<path d="M56.3871 386.323H70.4839V400.42H56.3871V386.323Z" fill="#FF5E14"/>
<path d="M84.5807 386.323H98.6775V400.42H84.5807V386.323Z" fill="#FF5E14"/>
<path d="M112.774 386.323H126.871V400.42H112.774V386.323Z" fill="#FF5E14"/>
<path d="M28.1936 386.323H42.2904V400.42H28.1936V386.323Z" fill="#FF5E14"/>
<path d="M112.774 414.516H126.871V428.613H112.774V414.516Z" fill="#FF5E14"/>
<path d="M84.5807 414.516H98.6775V428.613H84.5807V414.516Z" fill="#FF5E14"/>
<path d="M28.1936 414.516H42.2904V428.613H28.1936V414.516Z" fill="#FF5E14"/>
<path d="M56.3871 414.516H70.4839V428.613H56.3871V414.516Z" fill="#FF5E14"/>
<path d="M112.774 442.709H126.871V456.806H112.774V442.709Z" fill="#FF5E14"/>
<path d="M56.3871 442.709H70.4839V456.806H56.3871V442.709Z" fill="#FF5E14"/>
<path d="M28.1936 442.709H42.2904V456.806H28.1936V442.709Z" fill="#FF5E14"/>
<path d="M84.5807 442.709H98.6775V456.806H84.5807V442.709Z" fill="#FF5E14"/>
</svg>
